<svg width="16" height="16" viewBox="0 0 16 16" fill="none" xmlns="http://www.w3.org/2000/svg">
<path fill-rule="evenodd" clip-rule="evenodd" d="M6.33325 2.16484L7.99992 2.96867L9.66659 2.16484C10.7365 1.64883 11.93 1.64883 12.9999 2.16484L14.2475 2.76655C14.5006 2.88862 14.6666 3.1842 14.6666 3.51289V13.035C14.6666 13.4789 14.3681 13.8388 13.9999 13.8388C13.9151 13.8388 13.8311 13.8193 13.7523 13.7813L12.9999 13.4184C11.93 12.9024 10.7365 12.9024 9.66659 13.4184L7.99992 14.2223L6.33325 13.4184C5.26335 12.9024 4.06982 12.9024 2.99992 13.4184L2.24751 13.7813C1.90566 13.9462 1.51768 13.7457 1.38093 13.3335C1.34944 13.2386 1.33325 13.1373 1.33325 13.035V3.51289C1.33325 3.1842 1.49922 2.88862 1.75232 2.76655L2.99992 2.16484C4.06982 1.64883 5.26335 1.64883 6.33325 2.16484ZM3.50931 3.6024L2.66659 4.00884V11.8999C4.01687 11.3087 5.50494 11.3357 6.84264 11.9809L7.33325 12.2172V4.3305L5.82387 3.6024C5.08017 3.24372 4.253 3.24372 3.50931 3.6024ZM10.176 3.6024L8.66659 4.32972V12.2172L9.1572 11.9809C10.4949 11.3357 11.983 11.3087 13.3333 11.8999V4.00884L12.4905 3.6024C11.7468 3.24372 10.9197 3.24372 10.176 3.6024Z" fill="white"/>
</svg>
